<?xml version="1.0" encoding="utf-8"?>
<!-- Generator: Adobe Illustrator 16.0.3, SVG Export Plug-In . SVG Version: 6.00 Build 0)  -->
<!DOCTYPE svg PUBLIC "-//W3C//DTD SVG 1.1//EN" "http://www.w3.org/Graphics/SVG/1.1/DTD/svg11.dtd">
<svg version="1.1" id="Layer_1" xmlns="http://www.w3.org/2000/svg" xmlns:xlink="http://www.w3.org/1999/xlink" x="0px" y="0px"
	 width="42.52px" height="42.52px" viewBox="0 0 42.52 42.52" enable-background="new 0 0 42.52 42.52" xml:space="preserve">
<g>
	<path fill="#FFFFFF" d="M30.749,10.273c-3.499-0.259-6.47,1.955-8.126,1.955c-1.683,0-4.273-1.898-7.021-1.847
		c-3.607,0.052-6.935,2.099-8.795,5.331C3.06,22.216,5.851,31.856,9.501,37.136c1.785,2.578,3.915,5.485,6.713,5.381
		c2.694-0.106,3.713-1.742,6.966-1.742c3.254,0,4.172,1.742,7.02,1.689c2.897-0.055,4.733-2.633,6.507-5.228
		c2.052-2.993,2.895-5.893,2.943-6.047c-0.063-0.022-5.648-2.168-5.705-8.602c-0.051-5.38,4.394-7.967,4.594-8.092
		C36.017,10.784,32.122,10.375,30.749,10.273z"/>
	<path fill="#FFFFFF" d="M28.591,6.788C30.076,4.992,31.077,2.49,30.801,0c-2.138,0.085-4.727,1.425-6.261,3.221
		c-1.375,1.591-2.583,4.139-2.254,6.577C24.672,9.981,27.104,8.585,28.591,6.788z"/>
</g>
</svg>
